<svg xmlns="http://www.w3.org/2000/svg" viewBox="0 0 792.75 647.71"><defs><style>.cls-1{isolation:isolate;}.cls-2{fill:#3b3b3b;}.cls-3{fill:#5b5b5b;}.cls-4{fill:#87868e;}.cls-5,.cls-9{fill:#a19faa;}.cls-10,.cls-13,.cls-6{fill:#dedcea;}.cls-14,.cls-7{fill:#4e4d51;}.cls-8{fill:#79787f;}.cls-9{opacity:0.69;}.cls-10{opacity:0.75;}.cls-11,.cls-12{fill:#908d98;}.cls-11,.cls-14{mix-blend-mode:multiply;}.cls-13{opacity:0.11;mix-blend-mode:overlay;}.cls-14{opacity:0.41;}.cls-15{fill:#a2a1aa;}.cls-16{fill:#b8b8bf;}.cls-17{fill:#66666b;}.cls-18{fill:#a9a8b2;}.cls-19{fill:#94949b;}.cls-20{fill:#c4c4cc;}.cls-21{fill:#7d7b84;}.cls-22{fill:#b7b6bd;}.cls-23{fill:#a09ea4;}.cls-24{fill:#d3d2d9;opacity:0.78;}.cls-25{fill:#e5e4eb;}.cls-26{fill:#626264;}.cls-27{fill:#787879;}.cls-28{fill:#4c4c4d;}</style></defs><title>Door</title><g class="cls-1"><g id="Calque_2" data-name="Calque 2"><g id="_Layer_" data-name="&lt;Layer&gt;"><g id="Door"><path class="cls-2" d="M750.23,594.12a21,21,0,0,1-21-21V72.23a21,21,0,0,1,41.94,0V573.15A21,21,0,0,1,750.23,594.12Z"/><path class="cls-3" d="M746.73,582.91a7,7,0,0,1-7-7V67.86a7,7,0,0,1,14,0V575.92A7,7,0,0,1,746.73,582.91Z"/><polygon class="cls-4" points="684.7 551.93 295.02 612.47 295.02 35.53 684.7 96.08 684.7 551.93"/><polygon class="cls-5" points="672.92 542.28 295.02 596.6 295.02 52.86 672.92 107.17 672.92 542.28"/><polygon class="cls-6" points="295.02 46.66 295.02 57.47 672.92 109.59 672.92 100.98 295.02 46.66"/><circle class="cls-7" cx="655.43" cy="528.74" r="9.94" transform="translate(28.24 1090.7) rotate(-80.75)"/><circle class="cls-8" cx="655.43" cy="528.74" r="8.15" transform="translate(-181.91 618.32) rotate(-45)"/><path class="cls-9" d="M655.43,534.31a8.09,8.09,0,0,1-7.14-4,7.31,7.31,0,0,0,14.28,0A8.1,8.1,0,0,1,655.43,534.31Z"/><path class="cls-5" d="M661.55,526.74c0,3.06-2.74,5.53-6.12,5.53s-6.12-2.47-6.12-5.53,2.74-5.53,6.12-5.53S661.55,523.68,661.55,526.74Z"/><path class="cls-10" d="M659.47,524.81c0,1.66-1.81,3-4,3s-4-1.34-4-3,1.81-3,4-3S659.47,523.15,659.47,524.81Z"/><path class="cls-11" d="M684.7,155.81H591.28A325.47,325.47,0,0,0,489,65.67L295,35.53V612.47l271.65-42.2a326.46,326.46,0,0,0,32.94-41.38H684.7Z"/><rect class="cls-4" x="357.06" y="137.46" width="398.99" height="373.07"/><rect class="cls-5" x="357.06" y="151.44" width="383.85" height="345.12"/><rect class="cls-8" x="357.06" y="202.41" width="326.77" height="243.18"/><polygon class="cls-11" points="357.06 202.41 357.06 207.22 680.77 207.22 680.77 445.59 683.83 445.59 683.83 202.41 357.06 202.41"/><rect class="cls-6" x="357.06" y="151.44" width="383.85" height="6.99"/><path class="cls-11" d="M357.06,510.54H610.75a323.87,323.87,0,0,0-14.62-373.08S579,108.92,534.86,73.54c-2.62-.44-10.92-2.19-10.92-2.19L357.06,137.46Z"/><circle class="cls-12" cx="323.86" cy="323.86" r="323.86"/><circle class="cls-5" cx="323.27" cy="324" r="314.54" transform="translate(-134.42 323.49) rotate(-45)"/><circle class="cls-6" cx="323.86" cy="330.85" r="223.67" transform="translate(-139.09 325.9) rotate(-45)"/><path class="cls-13" d="M542.49,98.47,89.29,534.18a314.68,314.68,0,0,0,138.83,89.69L626.64,240.72A314.26,314.26,0,0,0,542.49,98.47Zm90.2,168.78L254.4,631a313.29,313.29,0,0,0,35.06,5.77l347.6-334.19A312.47,312.47,0,0,0,632.69,267.25ZM323.27,9.47q-11.81,0-23.41.86L10.77,288.26a316.25,316.25,0,0,0,8.15,115.37L414.81,23A314.4,314.4,0,0,0,323.27,9.47ZM474.38,48.09,41.63,464.14A314.78,314.78,0,0,0,71.08,512L521,79.41A315.55,315.55,0,0,0,474.38,48.09Z"/><circle class="cls-8" cx="323.86" cy="323.86" r="223.67" transform="translate(-134.15 323.86) rotate(-45)"/><path class="cls-14" d="M305.75,513.89h43l8.49-75.72h-60l5.09,72.66ZM215.13,296l-75.72,8.5L136,344.39l3.4,3.15,75.72,8.5Zm-35.91-87.62L226.76,268l42.42-42.43L209.63,178Zm0,235.24,30.41,30.41,59.55-47.53-42.42-42.43ZM305.75,138.19l-8.49,75.72h60l-8.49-75.72-3.5-2.62Zm169.54,70.23L444.88,178l-59.55,47.53L427.75,268ZM439.38,296v60l75.72-8.5v-43l-3.4-3Zm-54.05,130.5,59.55,47.53,30.41-30.41-47.54-59.55Z"/><polygon class="cls-15" points="293.86 435.11 353.85 435.11 345.36 510.83 302.35 510.83 293.86 435.11"/><polygon class="cls-16" points="307.26 439.62 340.46 439.62 335.75 500.78 311.96 500.78 307.26 439.62"/><polygon class="cls-17" points="345.36 510.83 335.75 500.78 311.96 500.78 302.35 510.83 345.36 510.83"/><polygon class="cls-17" points="211.73 292.99 211.73 352.98 136.01 344.49 136.01 301.48 211.73 292.99"/><polygon class="cls-16" points="207.22 306.38 207.22 339.58 146.06 334.88 146.06 311.08 207.22 306.38"/><polygon class="cls-15" points="136.01 344.49 146.06 334.88 146.06 311.08 136.01 301.48 136.01 344.49"/><polygon class="cls-6" points="136.01 301.48 146.06 311.08 198.04 307.25 200.44 294.37 136.01 301.48"/><polygon class="cls-15" points="265.78 222.49 223.36 264.91 175.82 205.36 206.23 174.95 265.78 222.49"/><polygon class="cls-16" points="253.12 228.77 229.64 252.24 189.72 205.67 206.55 188.84 253.12 228.77"/><polygon class="cls-6" points="175.82 205.36 189.72 205.67 206.55 188.84 206.23 174.95 175.82 205.36"/><polygon class="cls-17" points="223.36 264.91 229.64 252.24 189.72 205.67 175.82 205.36 223.36 264.91"/><polygon class="cls-17" points="223.36 381.06 265.78 423.48 206.23 471.01 175.82 440.61 223.36 381.06"/><polygon class="cls-16" points="229.64 393.72 253.12 417.2 206.55 457.12 189.72 440.29 229.64 393.72"/><polygon class="cls-15" points="206.23 471.01 206.55 457.12 189.72 440.29 175.82 440.61 206.23 471.01"/><polygon class="cls-6" points="175.82 440.61 189.72 440.29 229.64 393.72 223.36 381.06 175.82 440.61"/><polygon class="cls-15" points="353.85 210.86 293.86 210.86 302.35 135.13 345.36 135.13 353.85 210.86"/><polygon class="cls-16" points="340.46 206.34 307.26 206.34 311.96 145.18 335.75 145.18 340.46 206.34"/><polygon class="cls-6" points="302.35 135.13 311.96 145.18 335.75 145.18 345.36 135.13 302.35 135.13"/><polygon class="cls-17" points="345.36 135.13 335.75 145.18 341.33 209.98 354.44 212.02 345.36 135.13"/><polygon class="cls-6" points="424.35 264.91 381.93 222.49 441.48 174.95 471.89 205.36 424.35 264.91"/><polygon class="cls-16" points="418.07 252.24 394.6 228.77 441.17 188.84 457.99 205.67 418.07 252.24"/><polygon class="cls-15" points="441.48 174.95 441.17 188.84 457.99 205.67 471.89 205.36 441.48 174.95"/><polygon class="cls-17" points="418.07 252.24 423.75 265.61 471.89 205.36 457.99 205.67 418.07 252.24"/><polygon class="cls-6" points="435.98 352.98 435.98 292.99 511.7 301.48 511.7 344.49 435.98 352.98"/><polygon class="cls-16" points="440.5 339.58 440.5 306.38 501.66 311.08 501.66 334.88 440.5 339.58"/><polygon class="cls-15" points="511.7 301.48 501.66 311.08 501.66 334.88 511.7 344.49 511.7 301.48"/><polygon class="cls-17" points="511.7 344.49 501.66 334.88 440.5 339.58 435.98 352.98 511.7 344.49"/><polygon class="cls-6" points="381.93 423.48 424.35 381.06 471.89 440.61 441.48 471.01 381.93 423.48"/><polygon class="cls-16" points="394.6 417.2 418.07 393.72 457.99 440.29 441.17 457.12 394.6 417.2"/><polygon class="cls-15" points="471.89 440.61 457.99 440.29 441.17 457.12 441.48 471.01 471.89 440.61"/><polygon class="cls-17" points="441.48 471.01 441.17 457.12 394.6 417.2 381.93 423.48 441.48 471.01"/><circle class="cls-14" cx="323.86" cy="337.84" r="129.31" transform="translate(-65.55 597.41) rotate(-79.9)"/><circle class="cls-18" cx="323.86" cy="323.86" r="129.31" transform="translate(-134.15 323.86) rotate(-45)"/><path class="cls-19" d="M438.29,263.65A165.57,165.57,0,0,1,215.38,394.2,129.3,129.3,0,0,0,438.29,263.65Z"/><circle class="cls-20" cx="323.86" cy="323.86" r="103.97" transform="translate(-134.15 323.86) rotate(-45)"/><path class="cls-6" d="M323.86,222.51A103.94,103.94,0,0,1,427.79,325.17c0-.44,0-.87,0-1.31a104,104,0,1,0-207.95,0c0,.44,0,.87,0,1.31A103.94,103.94,0,0,1,323.86,222.51Z"/><path class="cls-6" d="M323.86,200.37a129.28,129.28,0,0,1,129.23,126.4c0-1,.08-1.94.08-2.91a129.31,129.31,0,0,0-258.62,0c0,1,0,1.94.07,2.91A129.28,129.28,0,0,1,323.86,200.37Z"/><path class="cls-7" d="M323.86,118.82c120.4,0,218.54,95.15,223.43,214.35.13-3.09.24-6.19.24-9.31,0-123.53-100.14-223.67-223.67-223.67S100.19,200.33,100.19,323.86c0,3.12.1,6.22.23,9.31C105.31,214,203.45,118.82,323.86,118.82Z"/><path class="cls-21" d="M323.86,630.24c-172.35,0-312.3-138.63-314.49-310.46,0,1.36,0,2.71,0,4.08,0,173.71,140.82,314.53,314.54,314.53S638.39,497.57,638.39,323.86c0-1.37,0-2.72,0-4.08C636.15,491.61,496.21,630.24,323.86,630.24Z"/><path class="cls-6" d="M323.86,19.8c172,0,311.66,138,314.47,309.3,0-1.75.06-3.49.06-5.24,0-173.72-140.82-314.54-314.53-314.54S9.32,150.14,9.32,323.86c0,1.75,0,3.49.07,5.24C12.19,157.81,151.9,19.8,323.86,19.8Z"/><path class="cls-7" d="M330.21,208.87a6.36,6.36,0,1,1-6.35-6.35A6.35,6.35,0,0,1,330.21,208.87Z"/><circle class="cls-8" cx="323.86" cy="208.87" r="5.21"/><path class="cls-9" d="M323.86,212.43a5.17,5.17,0,0,1-4.57-2.55,4.67,4.67,0,0,0,9.13,0A5.15,5.15,0,0,1,323.86,212.43Z"/><path class="cls-5" d="M327.77,207.59a3.93,3.93,0,1,1-3.91-3.53A3.74,3.74,0,0,1,327.77,207.59Z"/><path class="cls-10" d="M326.44,206.36c0,1.06-1.16,1.92-2.58,1.92s-2.59-.86-2.59-1.92,1.16-1.92,2.59-1.92S326.44,205.3,326.44,206.36Z"/><path class="cls-7" d="M272.72,224.38a6.36,6.36,0,1,1-6.25-6.45A6.36,6.36,0,0,1,272.72,224.38Z"/><path class="cls-8" d="M271.58,224.36a5.22,5.22,0,1,1-5.13-5.29A5.22,5.22,0,0,1,271.58,224.36Z"/><path class="cls-9" d="M266.31,227.84a5.18,5.18,0,0,1-4.52-2.63,4.67,4.67,0,0,0,9.12.15A5.17,5.17,0,0,1,266.31,227.84Z"/><path class="cls-5" d="M270.29,223.06a3.92,3.92,0,1,1-3.85-3.6A3.73,3.73,0,0,1,270.29,223.06Z"/><path class="cls-10" d="M269,221.81c0,1.06-1.19,1.9-2.62,1.87s-2.56-.9-2.55-2,1.19-1.9,2.62-1.88S269,220.75,269,221.81Z"/><path class="cls-7" d="M230.62,266.12A6.35,6.35,0,1,1,224,260,6.34,6.34,0,0,1,230.62,266.12Z"/><path class="cls-8" d="M229.49,266.16a5.21,5.21,0,1,1-5.41-5A5.22,5.22,0,0,1,229.49,266.16Z"/><path class="cls-9" d="M224.41,269.92a5.14,5.14,0,0,1-4.65-2.37,4.67,4.67,0,0,0,9.11-.35A5.17,5.17,0,0,1,224.41,269.92Z"/><path class="cls-5" d="M228.13,264.94a3.93,3.93,0,1,1-4-3.39A3.73,3.73,0,0,1,228.13,264.94Z"/><path class="cls-10" d="M226.76,263.75c0,1.06-1.08,2-2.51,2s-2.61-.76-2.65-1.82,1.08-2,2.51-2S226.72,262.69,226.76,263.75Z"/><path class="cls-7" d="M215.22,323.86a6.35,6.35,0,1,1-6.35-6.36A6.35,6.35,0,0,1,215.22,323.86Z"/><circle class="cls-8" cx="208.87" cy="323.86" r="5.21"/><path class="cls-9" d="M208.87,327.42a5.16,5.16,0,0,1-4.56-2.56,4.67,4.67,0,0,0,9.12,0A5.16,5.16,0,0,1,208.87,327.42Z"/><path class="cls-5" d="M212.78,322.58a3.93,3.93,0,1,1-3.91-3.54A3.73,3.73,0,0,1,212.78,322.58Z"/><path class="cls-10" d="M211.46,321.34c0,1.06-1.16,1.92-2.59,1.92s-2.58-.86-2.58-1.92,1.16-1.92,2.58-1.92S211.46,320.28,211.46,321.34Z"/><path class="cls-7" d="M230.63,381.28a6.36,6.36,0,1,1-6.42-6.28A6.35,6.35,0,0,1,230.63,381.28Z"/><path class="cls-8" d="M229.49,381.29a5.21,5.21,0,1,1-5.27-5.15A5.22,5.22,0,0,1,229.49,381.29Z"/><path class="cls-9" d="M224.31,384.91a5.15,5.15,0,0,1-4.58-2.51,4.67,4.67,0,0,0,9.12-.09A5.18,5.18,0,0,1,224.31,384.91Z"/><path class="cls-5" d="M228.17,380a3.93,3.93,0,1,1-3.94-3.5A3.73,3.73,0,0,1,228.17,380Z"/><path class="cls-10" d="M226.83,378.81c0,1.06-1.13,1.93-2.56,1.94s-2.59-.83-2.6-1.89,1.13-1.93,2.56-1.94S226.82,377.75,226.83,378.81Z"/><path class="cls-7" d="M272.71,423.27a6.35,6.35,0,1,1-6.51-6.19A6.34,6.34,0,0,1,272.71,423.27Z"/><path class="cls-8" d="M271.57,423.3a5.21,5.21,0,1,1-5.34-5.08A5.22,5.22,0,0,1,271.57,423.3Z"/><path class="cls-9" d="M266.45,427a5.16,5.16,0,0,1-4.62-2.43,4.67,4.67,0,0,0,9.12-.23A5.17,5.17,0,0,1,266.45,427Z"/><path class="cls-5" d="M270.24,422.06a3.93,3.93,0,1,1-4-3.44A3.73,3.73,0,0,1,270.24,422.06Z"/><path class="cls-10" d="M268.88,420.86c0,1.06-1.11,1.95-2.53,2s-2.6-.79-2.63-1.85,1.1-1.95,2.53-2S268.86,419.8,268.88,420.86Z"/><path class="cls-7" d="M330.21,438.84a6.36,6.36,0,1,1-6.35-6.35A6.35,6.35,0,0,1,330.21,438.84Z"/><circle class="cls-8" cx="323.86" cy="438.84" r="5.21"/><path class="cls-9" d="M323.86,442.4a5.19,5.19,0,0,1-4.57-2.55,4.67,4.67,0,0,0,9.13,0A5.17,5.17,0,0,1,323.86,442.4Z"/><path class="cls-5" d="M327.77,437.56a3.93,3.93,0,1,1-3.91-3.54A3.75,3.75,0,0,1,327.77,437.56Z"/><path class="cls-10" d="M326.44,436.33c0,1.06-1.16,1.92-2.58,1.92s-2.59-.86-2.59-1.92,1.16-1.92,2.59-1.92S326.44,435.27,326.44,436.33Z"/><path class="cls-7" d="M387.7,423.21a6.35,6.35,0,1,1-6.58-6.12A6.35,6.35,0,0,1,387.7,423.21Z"/><path class="cls-8" d="M386.56,423.25a5.21,5.21,0,1,1-5.4-5A5.21,5.21,0,0,1,386.56,423.25Z"/><path class="cls-9" d="M381.47,427a5.17,5.17,0,0,1-4.65-2.39,4.67,4.67,0,0,0,9.12-.32A5.14,5.14,0,0,1,381.47,427Z"/><path class="cls-5" d="M385.21,422a3.93,3.93,0,1,1-4-3.4A3.73,3.73,0,0,1,385.21,422Z"/><path class="cls-10" d="M383.84,420.83c0,1.06-1.09,2-2.51,2s-2.61-.77-2.65-1.83,1.09-1.95,2.51-2S383.8,419.77,383.84,420.83Z"/><path class="cls-7" d="M429.79,381.29a6.36,6.36,0,1,1-6.41-6.29A6.35,6.35,0,0,1,429.79,381.29Z"/><path class="cls-8" d="M428.65,381.3a5.22,5.22,0,1,1-5.26-5.16A5.22,5.22,0,0,1,428.65,381.3Z"/><path class="cls-9" d="M423.47,384.91a5.17,5.17,0,0,1-4.59-2.51,4.68,4.68,0,0,0,9.13-.08A5.18,5.18,0,0,1,423.47,384.91Z"/><path class="cls-5" d="M427.33,380a3.93,3.93,0,1,1-3.94-3.5A3.72,3.72,0,0,1,427.33,380Z"/><path class="cls-10" d="M426,378.81c0,1.06-1.14,1.93-2.57,1.94s-2.59-.83-2.6-1.89,1.14-1.93,2.56-1.94S426,377.75,426,378.81Z"/><path class="cls-7" d="M445.19,323.86a6.35,6.35,0,1,1-6.35-6.36A6.35,6.35,0,0,1,445.19,323.86Z"/><circle class="cls-8" cx="438.84" cy="323.86" r="5.21"/><path class="cls-9" d="M438.84,327.42a5.16,5.16,0,0,1-4.56-2.56,4.67,4.67,0,0,0,9.12,0A5.16,5.16,0,0,1,438.84,327.42Z"/><path class="cls-5" d="M442.75,322.58a3.93,3.93,0,1,1-3.91-3.54A3.73,3.73,0,0,1,442.75,322.58Z"/><path class="cls-10" d="M441.42,321.34c0,1.06-1.15,1.92-2.58,1.92s-2.58-.86-2.58-1.92,1.15-1.92,2.58-1.92S441.42,320.28,441.42,321.34Z"/><path class="cls-7" d="M429.79,266.25a6.36,6.36,0,1,1-6.47-6.24A6.37,6.37,0,0,1,429.79,266.25Z"/><path class="cls-8" d="M428.65,266.27a5.22,5.22,0,1,1-5.31-5.12A5.22,5.22,0,0,1,428.65,266.27Z"/><path class="cls-9" d="M423.5,269.92a5.16,5.16,0,0,1-4.61-2.46,4.67,4.67,0,0,0,9.12-.17A5.14,5.14,0,0,1,423.5,269.92Z"/><path class="cls-5" d="M427.32,265a3.93,3.93,0,1,1-4-3.46A3.73,3.73,0,0,1,427.32,265Z"/><path class="cls-10" d="M426,263.8c0,1.06-1.12,1.94-2.55,2s-2.59-.81-2.61-1.87,1.12-1.94,2.54-2S426,262.74,426,263.8Z"/><path class="cls-7" d="M387.7,224.35a6.35,6.35,0,1,1-6.27-6.43A6.36,6.36,0,0,1,387.7,224.35Z"/><path class="cls-8" d="M386.56,224.34a5.21,5.21,0,1,1-5.15-5.28A5.22,5.22,0,0,1,386.56,224.34Z"/><path class="cls-9" d="M381.3,227.84a5.17,5.17,0,0,1-4.53-2.61,4.68,4.68,0,0,0,9.13.11A5.18,5.18,0,0,1,381.3,227.84Z"/><path class="cls-5" d="M385.27,223.05a3.93,3.93,0,1,1-3.86-3.59A3.72,3.72,0,0,1,385.27,223.05Z"/><path class="cls-10" d="M384,221.8c0,1.06-1.18,1.9-2.6,1.88s-2.58-.89-2.56-2,1.18-1.9,2.6-1.89S384,220.74,384,221.8Z"/><path class="cls-7" d="M338.68,55.59a14.82,14.82,0,1,1-14.82-14.82A14.82,14.82,0,0,1,338.68,55.59Z"/><path class="cls-8" d="M336,55.59a12.16,12.16,0,1,1-12.16-12.16A12.16,12.16,0,0,1,336,55.59Z"/><path class="cls-9" d="M323.86,63.9A12.07,12.07,0,0,1,313.21,58a10.9,10.9,0,0,0,21.29,0A12.05,12.05,0,0,1,323.86,63.9Z"/><path class="cls-5" d="M333,52.61c0,4.55-4.09,8.25-9.12,8.25s-9.12-3.7-9.12-8.25,4.08-8.25,9.12-8.25S333,48.05,333,52.61Z"/><path class="cls-10" d="M329.88,49.73c0,2.47-2.7,4.48-6,4.48s-6-2-6-4.48,2.7-4.48,6-4.48S329.88,47.26,329.88,49.73Z"/><path class="cls-7" d="M204.54,91.77a14.82,14.82,0,1,1-14.58-15A14.81,14.81,0,0,1,204.54,91.77Z"/><path class="cls-8" d="M201.88,91.73a12.16,12.16,0,1,1-12-12.36A12.15,12.15,0,0,1,201.88,91.73Z"/><path class="cls-9" d="M189.59,99.84a12,12,0,0,1-10.54-6.12,10.9,10.9,0,0,0,21.28.34A12.06,12.06,0,0,1,189.59,99.84Z"/><path class="cls-5" d="M198.89,88.7c-.07,4.55-4.21,8.18-9.25,8.1s-9.06-3.84-9-8.4,4.22-8.18,9.26-8.1S199,84.14,198.89,88.7Z"/><path class="cls-10" d="M195.84,85.77c0,2.47-2.77,4.43-6.09,4.38s-6-2.1-6-4.58,2.77-4.43,6.1-4.38S195.88,83.3,195.84,85.77Z"/><path class="cls-7" d="M106.34,189.16A14.82,14.82,0,1,1,91,174.91,14.8,14.8,0,0,1,106.34,189.16Z"/><path class="cls-8" d="M103.69,189.26a12.16,12.16,0,1,1-12.62-11.69A12.17,12.17,0,0,1,103.69,189.26Z"/><path class="cls-9" d="M91.85,198A12,12,0,0,1,81,192.48a10.9,10.9,0,0,0,21.27-.81A12,12,0,0,1,91.85,198Z"/><path class="cls-5" d="M100.53,186.39c.18,4.56-3.76,8.4-8.79,8.6s-9.26-3.35-9.43-7.9,3.76-8.4,8.8-8.59S100.36,181.84,100.53,186.39Z"/><path class="cls-10" d="M97.33,183.64c.1,2.47-2.52,4.57-5.85,4.7s-6.1-1.77-6.19-4.24,2.52-4.58,5.85-4.71S97.24,181.16,97.33,183.64Z"/><path class="cls-7" d="M70.41,323.86A14.82,14.82,0,1,1,55.59,309,14.82,14.82,0,0,1,70.41,323.86Z"/><path class="cls-8" d="M67.75,323.86A12.16,12.16,0,1,1,55.59,311.7,12.16,12.16,0,0,1,67.75,323.86Z"/><path class="cls-9" d="M55.59,332.16a12.05,12.05,0,0,1-10.64-6,10.9,10.9,0,0,0,21.29,0A12.07,12.07,0,0,1,55.59,332.16Z"/><path class="cls-5" d="M64.71,320.87c0,4.56-4.08,8.25-9.12,8.25s-9.12-3.69-9.12-8.25,4.09-8.25,9.12-8.25S64.71,316.31,64.71,320.87Z"/><path class="cls-10" d="M61.62,318c0,2.48-2.7,4.48-6,4.48s-6-2-6-4.48,2.7-4.48,6-4.48S61.62,315.52,61.62,318Z"/><path class="cls-7" d="M106.35,457.83a14.82,14.82,0,1,1-15-14.66A14.82,14.82,0,0,1,106.35,457.83Z"/><path class="cls-8" d="M103.69,457.86a12.16,12.16,0,1,1-12.28-12A12.16,12.16,0,0,1,103.69,457.86Z"/><path class="cls-9" d="M91.62,466.29a12,12,0,0,1-10.7-5.84,10.89,10.89,0,0,0,21.28-.22A12.05,12.05,0,0,1,91.62,466.29Z"/><path class="cls-5" d="M100.62,454.9c0,4.56-4,8.3-9,8.35s-9.16-3.6-9.21-8.15,4-8.3,9-8.35S100.57,450.35,100.62,454.9Z"/><path class="cls-10" d="M97.5,452.06c0,2.47-2.65,4.51-6,4.54s-6-1.94-6.07-4.41,2.65-4.51,6-4.54S97.47,449.59,97.5,452.06Z"/><path class="cls-7" d="M204.54,555.8a14.82,14.82,0,1,1-15.19-14.44A14.82,14.82,0,0,1,204.54,555.8Z"/><path class="cls-8" d="M201.88,555.87A12.16,12.16,0,1,1,189.42,544,12.16,12.16,0,0,1,201.88,555.87Z"/><path class="cls-9" d="M189.94,564.48a12,12,0,0,1-10.79-5.68,10.89,10.89,0,0,0,21.27-.54A12,12,0,0,1,189.94,564.48Z"/><path class="cls-5" d="M198.77,553c.11,4.56-3.88,8.35-8.91,8.48s-9.21-3.46-9.33-8,3.87-8.35,8.91-8.48S198.65,548.41,198.77,553Z"/><path class="cls-10" d="M195.6,550.16c.06,2.48-2.58,4.55-5.91,4.63s-6.08-1.85-6.14-4.32,2.59-4.55,5.91-4.63S195.54,547.69,195.6,550.16Z"/><path class="cls-7" d="M338.68,592.12a14.82,14.82,0,1,1-14.82-14.82A14.83,14.83,0,0,1,338.68,592.12Z"/><path class="cls-8" d="M336,592.12A12.16,12.16,0,1,1,323.86,580,12.17,12.17,0,0,1,336,592.12Z"/><path class="cls-9" d="M323.86,600.42a12.07,12.07,0,0,1-10.65-5.95,10.9,10.9,0,0,0,21.29,0A12.05,12.05,0,0,1,323.86,600.42Z"/><path class="cls-5" d="M333,589.13c0,4.56-4.09,8.25-9.12,8.25s-9.12-3.69-9.12-8.25,4.08-8.25,9.12-8.25S333,584.57,333,589.13Z"/><path class="cls-10" d="M329.88,586.25c0,2.48-2.7,4.48-6,4.48s-6-2-6-4.48,2.7-4.47,6-4.47S329.88,583.78,329.88,586.25Z"/><path class="cls-7" d="M472.8,555.65a14.82,14.82,0,1,1-15.34-14.28A14.83,14.83,0,0,1,472.8,555.65Z"/><path class="cls-8" d="M470.14,555.75A12.16,12.16,0,1,1,457.56,544,12.16,12.16,0,0,1,470.14,555.75Z"/><path class="cls-9" d="M458.28,564.48a12.07,12.07,0,0,1-10.85-5.57,10.9,10.9,0,0,0,21.28-.76A12.06,12.06,0,0,1,458.28,564.48Z"/><path class="cls-5" d="M467,552.87c.16,4.56-3.79,8.39-8.83,8.57s-9.24-3.37-9.4-7.92,3.79-8.39,8.82-8.57S466.83,548.32,467,552.87Z"/><path class="cls-10" d="M463.8,550.1c.09,2.48-2.54,4.58-5.86,4.69s-6.1-1.79-6.18-4.26,2.54-4.57,5.86-4.69S463.71,547.63,463.8,550.1Z"/><path class="cls-7" d="M571,457.85a14.82,14.82,0,1,1-15-14.68A14.83,14.83,0,0,1,571,457.85Z"/><path class="cls-8" d="M568.34,457.88a12.16,12.16,0,1,1-12.27-12.05A12.17,12.17,0,0,1,568.34,457.88Z"/><path class="cls-9" d="M556.25,466.29a12,12,0,0,1-10.69-5.85,10.89,10.89,0,0,0,21.28-.2A12,12,0,0,1,556.25,466.29Z"/><path class="cls-5" d="M565.27,454.92c0,4.56-4,8.29-9,8.33s-9.16-3.61-9.2-8.17,4-8.29,9.05-8.33S565.23,450.36,565.27,454.92Z"/><path class="cls-10" d="M562.15,452.07c0,2.47-2.66,4.5-6,4.53s-6-2-6.07-4.42,2.66-4.5,6-4.53S562.13,449.6,562.15,452.07Z"/><path class="cls-7" d="M606.94,323.86A14.82,14.82,0,1,1,592.12,309,14.83,14.83,0,0,1,606.94,323.86Z"/><path class="cls-8" d="M604.28,323.86a12.16,12.16,0,1,1-12.16-12.16A12.17,12.17,0,0,1,604.28,323.86Z"/><path class="cls-9" d="M592.12,332.16a12,12,0,0,1-10.64-6,10.89,10.89,0,0,0,21.28,0A12,12,0,0,1,592.12,332.16Z"/><path class="cls-5" d="M601.24,320.87c0,4.56-4.09,8.25-9.12,8.25s-9.12-3.69-9.12-8.25,4.08-8.25,9.12-8.25S601.24,316.31,601.24,320.87Z"/><path class="cls-10" d="M598.14,318c0,2.48-2.69,4.48-6,4.48s-6-2-6-4.48,2.7-4.48,6-4.48S598.14,315.52,598.14,318Z"/><path class="cls-7" d="M571,189.45a14.82,14.82,0,1,1-15.09-14.54A14.82,14.82,0,0,1,571,189.45Z"/><path class="cls-8" d="M568.34,189.5A12.16,12.16,0,1,1,556,177.57,12.16,12.16,0,0,1,568.34,189.5Z"/><path class="cls-9" d="M556.33,198a12,12,0,0,1-10.75-5.76,10.9,10.9,0,0,0,21.28-.39A12,12,0,0,1,556.33,198Z"/><path class="cls-5" d="M565.24,186.57c.09,4.56-3.93,8.33-9,8.42s-9.18-3.53-9.27-8.08,3.93-8.33,9-8.42S565.16,182,565.24,186.57Z"/><path class="cls-10" d="M562.09,183.75c0,2.47-2.61,4.53-5.94,4.59s-6.06-1.89-6.1-4.37,2.61-4.52,5.94-4.58S562.05,181.28,562.09,183.75Z"/><path class="cls-7" d="M472.81,91.72a14.82,14.82,0,1,1-14.64-15A14.82,14.82,0,0,1,472.81,91.72Z"/><path class="cls-8" d="M470.15,91.68a12.16,12.16,0,1,1-12-12.31A12.16,12.16,0,0,1,470.15,91.68Z"/><path class="cls-9" d="M457.88,99.84a12,12,0,0,1-10.56-6.08A10.9,10.9,0,0,0,468.6,94,12,12,0,0,1,457.88,99.84Z"/><path class="cls-5" d="M467.14,88.66c-.05,4.56-4.18,8.2-9.22,8.14s-9.07-3.81-9-8.36,4.19-8.2,9.23-8.14S467.2,84.1,467.14,88.66Z"/><path class="cls-10" d="M464.08,85.75c0,2.47-2.75,4.44-6.08,4.4s-6-2.08-6-4.55,2.76-4.45,6.08-4.41S464.11,83.27,464.08,85.75Z"/><path class="cls-11" d="M715.86,137.46l-3.2,87.88s1.64,8.09,4.25,11.88a5.36,5.36,0,0,0,3.24,2.13,172.36,172.36,0,0,0,35.9,3.78V137.46Z"/><path class="cls-22" d="M788.46,228a172.08,172.08,0,0,1-71.81,0,5.46,5.46,0,0,1-4.28-5.36V88.12a5.46,5.46,0,0,1,4.28-5.36,172.08,172.08,0,0,1,71.81,0,5.47,5.47,0,0,1,4.29,5.36V222.63A5.47,5.47,0,0,1,788.46,228Z"/><path class="cls-23" d="M770.47,230.84a171.67,171.67,0,0,0,18-2.85l.14-.05V82.81l-.14,0a171.67,171.67,0,0,0-18-2.85Z"/><path class="cls-24" d="M725.25,81.16V229.59a172.17,172.17,0,0,0,31.24,2.08V79.08A172.17,172.17,0,0,0,725.25,81.16Z"/><rect class="cls-25" x="712.37" y="111.91" width="80.38" height="10.05"/><rect class="cls-26" x="712.37" y="110.16" width="80.38" height="10.05"/><rect class="cls-27" x="725.76" y="110.16" width="34.51" height="10.05"/><rect class="cls-28" x="712.37" y="110.16" width="80.38" height="2.84"/><rect class="cls-25" x="712.37" y="193.16" width="80.38" height="10.05"/><rect class="cls-26" x="712.37" y="191.42" width="80.38" height="10.05"/><rect class="cls-27" x="725.76" y="191.42" width="34.51" height="10.05"/><rect class="cls-28" x="712.37" y="191.42" width="80.38" height="2.84"/><path class="cls-22" d="M788.46,565.24a172.08,172.08,0,0,1-71.81,0,5.46,5.46,0,0,1-4.28-5.36V425.37a5.47,5.47,0,0,1,4.28-5.36,172.08,172.08,0,0,1,71.81,0,5.48,5.48,0,0,1,4.29,5.36V559.88A5.46,5.46,0,0,1,788.46,565.24Z"/><path class="cls-23" d="M770.47,568.09a171.67,171.67,0,0,0,18-2.85l.14,0V420.07c-.05,0-.09-.05-.14-.06a171.67,171.67,0,0,0-18-2.85Z"/><path class="cls-24" d="M725.25,418.41V566.84a173.08,173.08,0,0,0,31.24,2.09V416.33A172.17,172.17,0,0,0,725.25,418.41Z"/><rect class="cls-25" x="712.37" y="449.16" width="80.38" height="10.05"/><rect class="cls-26" x="712.37" y="447.41" width="80.38" height="10.05"/><rect class="cls-27" x="725.76" y="447.41" width="34.51" height="10.05"/><rect class="cls-28" x="712.37" y="447.41" width="80.38" height="2.84"/><rect class="cls-25" x="712.37" y="530.42" width="80.38" height="10.05"/><rect class="cls-26" x="712.37" y="528.67" width="80.38" height="10.05"/><rect class="cls-27" x="725.76" y="528.67" width="34.51" height="10.05"/><rect class="cls-28" x="712.37" y="528.67" width="80.38" height="2.84"/><circle class="cls-7" cx="696.06" cy="175.76" r="9.94"/><circle class="cls-8" cx="696.06" cy="175.76" r="8.15" transform="translate(504.85 867.73) rotate(-88.72)"/><path class="cls-9" d="M696.06,181.33a8.07,8.07,0,0,1-7.14-4,7.3,7.3,0,0,0,14.27,0A8.05,8.05,0,0,1,696.06,181.33Z"/><path class="cls-5" d="M702.17,173.76a5.83,5.83,0,0,1-6.11,5.53c-3.38,0-6.12-2.47-6.12-5.53s2.74-5.53,6.12-5.53A5.83,5.83,0,0,1,702.17,173.76Z"/><path class="cls-10" d="M700.1,171.83c0,1.66-1.81,3-4,3s-4-1.34-4-3,1.81-3,4-3S700.1,170.17,700.1,171.83Z"/><circle class="cls-7" cx="696.06" cy="479.38" r="9.94" transform="translate(-135.1 632.59) rotate(-45)"/><circle class="cls-8" cx="696.06" cy="479.38" r="8.15" transform="translate(-147.88 524.92) rotate(-37.64)"/><path class="cls-9" d="M696.06,485a8.08,8.08,0,0,1-7.14-4,7.3,7.3,0,0,0,14.27,0A8.06,8.06,0,0,1,696.06,485Z"/><path class="cls-5" d="M702.17,477.37a6.14,6.14,0,0,1-12.23,0c0-3.05,2.74-5.53,6.12-5.53A5.84,5.84,0,0,1,702.17,477.37Z"/><path class="cls-10" d="M700.1,475.44c0,1.66-1.81,3-4,3s-4-1.35-4-3,1.81-3,4-3S700.1,473.79,700.1,475.44Z"/><circle class="cls-7" cx="723.14" cy="397.25" r="9.94"/><circle class="cls-8" cx="723.14" cy="397.25" r="8.15" transform="translate(298.88 1104.88) rotate(-87.84)"/><path class="cls-9" d="M723.14,402.82a8.07,8.07,0,0,1-7.13-4,7.31,7.31,0,0,0,14.27,0A8.09,8.09,0,0,1,723.14,402.82Z"/><path class="cls-5" d="M729.26,395.25c0,3.05-2.74,5.53-6.12,5.53a5.56,5.56,0,1,1,6.12-5.53Z"/><path class="cls-10" d="M727.18,393.32c0,1.65-1.81,3-4,3s-4-1.35-4-3,1.81-3,4-3S727.18,391.66,727.18,393.32Z"/><circle class="cls-7" cx="723.14" cy="250.52" r="9.94" transform="translate(301.61 889.27) rotate(-75.69)"/><circle class="cls-8" cx="723.14" cy="250.52" r="8.15" transform="translate(312.65 896.42) rotate(-76.67)"/><path class="cls-9" d="M723.14,256.09a8.07,8.07,0,0,1-7.13-4,7.3,7.3,0,0,0,14.27,0A8.09,8.09,0,0,1,723.14,256.09Z"/><path class="cls-5" d="M729.26,248.52c0,3-2.74,5.53-6.12,5.53a5.56,5.56,0,1,1,6.12-5.53Z"/><path class="cls-10" d="M727.18,246.59c0,1.66-1.81,3-4,3s-4-1.34-4-3,1.81-3,4-3S727.18,244.93,727.18,246.59Z"/><circle class="cls-7" cx="723.14" cy="330.9" r="9.94" transform="translate(234.32 958.18) rotate(-76.66)"/><path class="cls-8" d="M731.3,330.9a8.16,8.16,0,1,1-8.16-8.15A8.15,8.15,0,0,1,731.3,330.9Z"/><path class="cls-9" d="M723.14,336.47a8.07,8.07,0,0,1-7.13-4,7.3,7.3,0,0,0,14.27,0A8.09,8.09,0,0,1,723.14,336.47Z"/><path class="cls-5" d="M729.26,328.9c0,3.05-2.74,5.53-6.12,5.53a5.56,5.56,0,1,1,6.12-5.53Z"/><path class="cls-10" d="M727.18,327c0,1.66-1.81,3-4,3s-4-1.34-4-3,1.81-3,4-3S727.18,325.31,727.18,327Z"/><circle class="cls-7" cx="655.43" cy="124.21" r="9.94"/><path class="cls-8" d="M663.58,124.21a8.16,8.16,0,1,1-8.15-8.15A8.15,8.15,0,0,1,663.58,124.21Z"/><path class="cls-9" d="M655.43,129.78a8.07,8.07,0,0,1-7.14-4,7.31,7.31,0,0,0,14.28,0A8.08,8.08,0,0,1,655.43,129.78Z"/><path class="cls-5" d="M661.55,122.21c0,3.06-2.74,5.53-6.12,5.53s-6.12-2.47-6.12-5.53,2.74-5.53,6.12-5.53S661.55,119.15,661.55,122.21Z"/><path class="cls-10" d="M659.47,120.28c0,1.66-1.81,3-4,3s-4-1.34-4-3,1.81-3,4-3S659.47,118.62,659.47,120.28Z"/></g></g></g></g></svg>