<svg width="562" height="581" viewBox="0 0 562 581" fill="none" xmlns="http://www.w3.org/2000/svg">
<rect x="5" y="5" width="552" height="552" rx="45" fill="#D9D9D9" stroke="black" stroke-width="10"/>
<rect x="54" y="54" width="454" height="454" rx="47" fill="#D9D9D9" stroke="black" stroke-width="6"/>
<rect x="152" y="98" width="258.884" height="48" fill="white"/>
<path d="M56 552H90V566C90 574.284 83.2843 581 75 581H71C62.7157 581 56 574.284 56 566V552Z" fill="black"/>
<path d="M56 552H90V566C90 574.284 83.2843 581 75 581H71C62.7157 581 56 574.284 56 566V552Z" fill="black"/>
<path d="M56 552H90V566C90 574.284 83.2843 581 75 581H71C62.7157 581 56 574.284 56 566V552Z" fill="black"/>
<path d="M482 552H516V566C516 574.284 509.284 581 501 581H497C488.716 581 482 574.284 482 566V552Z" fill="black"/>
<path d="M482 552H516V566C516 574.284 509.284 581 501 581H497C488.716 581 482 574.284 482 566V552Z" fill="black"/>
<path d="M482 552H516V566C516 574.284 509.284 581 501 581H497C488.716 581 482 574.284 482 566V552Z" fill="black"/>
</svg>
