<svg xmlns="http://www.w3.org/2000/svg" viewBox="0 0 147.95 147.95"><defs><style>.cls-1{isolation:isolate;}.cls-2,.cls-4{fill:#3b3b3b;}.cls-3{fill:#525252;}.cls-4{opacity:0.72;mix-blend-mode:multiply;}.cls-5{fill:#5c5c5c;}.cls-6{fill:#595959;}.cls-7{fill:#6b6b6b;}.cls-8{fill:#8c8c8c;}</style></defs><title>Wheel</title><g class="cls-1"><g id="Calque_2" data-name="Calque 2"><g id="_Layer_" data-name="&lt;Layer&gt;"><path class="cls-2" d="M74,82.64a8.73,8.73,0,0,1-8.73-8.74V14.38a8.74,8.74,0,1,1,17.47,0V73.9A8.74,8.74,0,0,1,74,82.64Z"/><path class="cls-2" d="M22.43,112a8.74,8.74,0,0,1-4.38-16.3L69.6,66a8.74,8.74,0,1,1,8.74,15.14L26.79,110.85A8.7,8.7,0,0,1,22.43,112Z"/><path class="cls-2" d="M125.51,112a8.76,8.76,0,0,1-4.36-1.17L69.6,81.09A8.74,8.74,0,0,1,78.34,66l51.55,29.77a8.73,8.73,0,0,1-4.38,16.3Z"/><path class="cls-3" d="M74,76.52a2.62,2.62,0,0,1-2.62-2.62V14.38a2.62,2.62,0,0,1,5.24,0V73.9A2.62,2.62,0,0,1,74,76.52Z"/><path class="cls-3" d="M22.43,105.9A2.62,2.62,0,0,1,21.11,101L72.66,71.25a2.62,2.62,0,1,1,2.62,4.54L23.74,105.55A2.63,2.63,0,0,1,22.43,105.9Z"/><path class="cls-3" d="M125.52,105.9a2.6,2.6,0,0,1-1.31-.35L72.66,75.79a2.62,2.62,0,1,1,2.62-4.54L126.83,101a2.62,2.62,0,0,1-1.31,4.89Z"/><path class="cls-4" d="M18.05,95.72a8.74,8.74,0,0,0,8.74,15.13l4.39-2.53a56.45,56.45,0,0,1-7.1-16.09ZM74,5.64a8.73,8.73,0,0,0-8.73,8.74v8.55a56.32,56.32,0,0,1,13.39-1.67c1.38,0,2.73.11,4.08.21V14.38A8.74,8.74,0,0,0,74,5.64ZM131.65,97.1a56.2,56.2,0,0,1-8,14.68,8.56,8.56,0,0,0,1.87.24,8.71,8.71,0,0,0,6.14-14.92Z"/><path class="cls-2" d="M74,148a74,74,0,1,1,74-74A74.06,74.06,0,0,1,74,148ZM74,17.47A56.5,56.5,0,1,0,130.47,74,56.57,56.57,0,0,0,74,17.47Z"/><path class="cls-5" d="M23.63,35.1a2.62,2.62,0,0,1-2-4.29,67.87,67.87,0,0,1,104.12-.72,2.62,2.62,0,0,1-4,3.39,62.62,62.62,0,0,0-96.08.67A2.63,2.63,0,0,1,23.63,35.1Z"/><path class="cls-5" d="M9.67,87.65a2.62,2.62,0,0,1-2.58-2.18,67.7,67.7,0,0,1-1-11.5,2.62,2.62,0,0,1,5.24,0,63.51,63.51,0,0,0,.89,10.62,2.6,2.6,0,0,1-2.14,3A2.25,2.25,0,0,1,9.67,87.65Z"/><path class="cls-3" d="M74,141.83a67.87,67.87,0,0,1-59.59-35.38,2.62,2.62,0,1,1,4.6-2.51,62.62,62.62,0,0,0,97,16.49,2.62,2.62,0,1,1,3.52,3.89A67.73,67.73,0,0,1,74,141.83Z"/><path class="cls-3" d="M131.33,107.69a2.52,2.52,0,0,1-1.24-.32,2.61,2.61,0,0,1-1.06-3.55A62.63,62.63,0,0,0,136.59,74a2.62,2.62,0,0,1,5.24,0,67.93,67.93,0,0,1-8.19,32.35A2.64,2.64,0,0,1,131.33,107.69Z"/><circle class="cls-2" cx="73.97" cy="73.97" r="21.84" transform="translate(-15.14 128.77) rotate(-76.59)"/><path class="cls-6" d="M74,55.92A18.06,18.06,0,1,0,92,74,18,18,0,0,0,74,55.92ZM74,89.7A15.73,15.73,0,1,1,89.7,74,15.72,15.72,0,0,1,74,89.7Z"/><path class="cls-7" d="M86.5,74A12.53,12.53,0,1,1,74,61.45,12.53,12.53,0,0,1,86.5,74Z"/><path class="cls-8" d="M74,62.62A12.5,12.5,0,0,1,86.44,74.56c0-.2.06-.39.06-.59a12.53,12.53,0,0,0-25,0c0,.2,0,.39.06.59A12.49,12.49,0,0,1,74,62.62Z"/><circle class="cls-2" cx="73.97" cy="73.97" r="21.84" transform="translate(-15.14 128.77) rotate(-76.59)"/><path class="cls-6" d="M74,55.92A18.06,18.06,0,1,0,92,74,18,18,0,0,0,74,55.92ZM74,89.7A15.73,15.73,0,1,1,89.7,74,15.72,15.72,0,0,1,74,89.7Z"/><path class="cls-7" d="M86.5,74A12.53,12.53,0,1,1,74,61.45,12.53,12.53,0,0,1,86.5,74Z"/><path class="cls-8" d="M74,62.62A12.5,12.5,0,0,1,86.44,74.56c0-.2.06-.39.06-.59a12.53,12.53,0,0,0-25,0c0,.2,0,.39.06.59A12.49,12.49,0,0,1,74,62.62Z"/></g></g></g></svg>